PathFileType	4	(X/Y/Z)	C:\Users\Basilio\Documents\Thesis Gigler\squatting_fais\c3dfiles\073\SLS_front_pre4\markers_experimental.trc
DataRate	CameraRate	NumFrames	NumMarkers	Units	OrigDataRate	OrigDataStartFrame	OrigNumFrames
200.000000	200.000000	4	61	mm	200.000000	0	1329
Frame#	Time	FHD			LBHD			RBHD			C7			T10			CLAV			LSHO			LUUPA			LMUPA			LDUPA			LLEP			LMEP			LRAD			LUL			LRFIN			RSHO			RUPA1			RMUPA			RDUPA			RLEP			RMEP			RRAD			RUL			RUFIN			LASI			RASI			USACR			LSACR			RSACR			LTHI1			LTHI2			LTHI3			LTHI4			LLFC			LMFC			LTIB1			LTIB2			LTIB3			LTIB4			LLMAL			LMMAL			LHEE			LMT1			LMT2			LMT5			RTHI			RTHI2			RTHI3			RTHI4			RLFC			RMFC			RTIB1			RTIB2			RTIB3			RTIB4			RLMAL			RMMAL			RHEE			RMT1			RMT2			RMT5			
		X1	Y1	Z1	X2	Y2	Z2	X3	Y3	Z3	X4	Y4	Z4	X5	Y5	Z5	X6	Y6	Z6	X7	Y7	Z7	X8	Y8	Z8	X9	Y9	Z9	X10	Y10	Z10	X11	Y11	Z11	X12	Y12	Z12	X13	Y13	Z13	X14	Y14	Z14	X15	Y15	Z15	X16	Y16	Z16	X17	Y17	Z17	X18	Y18	Z18	X19	Y19	Z19	X20	Y20	Z20	X21	Y21	Z21	X22	Y22	Z22	X23	Y23	Z23	X24	Y24	Z24	X25	Y25	Z25	X26	Y26	Z26	X27	Y27	Z27	X28	Y28	Z28	X29	Y29	Z29	X30	Y30	Z30	X31	Y31	Z31	X32	Y32	Z32	X33	Y33	Z33	X34	Y34	Z34	X35	Y35	Z35	X36	Y36	Z36	X37	Y37	Z37	X38	Y38	Z38	X39	Y39	Z39	X40	Y40	Z40	X41	Y41	Z41	X42	Y42	Z42	X43	Y43	Z43	X44	Y44	Z44	X45	Y45	Z45	X46	Y46	Z46	X47	Y47	Z47	X48	Y48	Z48	X49	Y49	Z49	X50	Y50	Z50	X51	Y51	Z51	X52	Y52	Z52	X53	Y53	Z53	X54	Y54	Z54	X55	Y55	Z55	X56	Y56	Z56	X57	Y57	Z57	X58	Y58	Z58	X59	Y59	Z59	X60	Y60	Z60	X61	Y61	Z61	

1	0	-275.3154296875001	1704.354370117188	-863.5337524414065	-408.3863220214845	1673.16748046875	-892.4537353515627	-435.9235229492189	1654.642578125	-759.8972778320314	-462.0435485839845	1544.894165039063	-827.6829223632815	-471.8345642089845	1203.637573242188	-827.585388183594	-331.7728881835938	1471.396362304688	-822.266784667969	-356.0638427734376	1509.966796875	-973.496765136719	-261.6471557617188	1433.853881835938	-1056.580322265625	-223.8013153076172	1459.905029296875	-1035.60009765625	-196.3988189697266	1411.352783203125	-1060.54541015625	-90.92117309570314	1395.38671875	-1057.628051757813	-92.06402587890626	1345.426635742188	-1006.798034667969	161.608139038086	1455.613037109375	-944.7876586914065	167.4758453369141	1445.111572265625	-1017.702392578125	240.9178619384766	1475.496459960938	-937.2777099609377	-357.7930603027344	1503.040161132813	-675.0908813476564	-257.2086791992188	1408.135009765625	-580.7855834960939	-220.2146301269532	1435.364624023438	-595.2608642578126	-191.8178253173828	1386.449340820313	-574.0923461914064	-98.53721618652347	1379.451293945313	-575.0436401367189	-96.57206726074222	1328.084350585938	-640.6716918945314	152.1669006347657	1439.7578125	-685.4671020507814	160.1905975341797	1442.89453125	-610.0766601562501	238.0361480712891	1472.655517578125	-687.6461181640626	-281.6842041015626	1063.7666015625	-950.0684204101565	-289.2270812988282	1048.75439453125	-695.2814941406251	-474.755584716797	1102.49853515625	-822.0344848632815	-485.9427795410157	1074.339111328125	-851.340515136719	-489.5356750488282	1069.72265625	-795.650817871094	-340.2302856445313	739.5890502929689	-1006.372985839844	-311.5512084960938	661.7992553710939	-987.1838989257815	-270.9645080566407	664.6810913085939	-959.7534790039065	-344.4140930175782	613.2559204101564	-980.872009277344	-350.0075683593751	550.9814453125001	-980.9060058593752	-353.7941589355469	546.7369384765626	-843.0141601562502	-305.3110046386719	351.9113464355469	-926.8120727539065	-362.6155395507813	310.3646850585938	-977.4270019531252	-321.9816894531251	303.8453063964844	-957.2048950195315	-322.1605529785157	226.4202728271485	-922.093444824219	-385.2517700195314	113.0495223999024	-942.0251464843752	-376.9090881347657	137.2452850341797	-859.6336059570315	-447.4353942871095	94.75273895263673	-902.2668457031252	-230.1293640136719	54.31306457519533	-854.027770996094	-227.2787780761719	51.94158935546876	-892.8554687500002	-262.9685363769532	36.13432693481446	-948.7618408203127	-385.4059143066407	809.7852172851565	-637.5000000000001	-351.3583679199219	752.8615722656251	-634.2011718750001	-317.4724121093751	753.7478027343751	-636.6625366210939	-379.3921203613282	677.0339965820314	-659.3863525390626	-361.7382507324219	527.8809814453126	-677.1860351562501	-349.2098999023438	516.8274536132814	-807.045104980469	-308.4074707031251	368.1839904785157	-764.3142700195314	-332.9002380371094	285.3899841308594	-697.2669677734376	-306.6763000488282	284.9333801269532	-738.2006225585939	-319.6409301757813	239.2649536132813	-771.8243408203127	-365.3934326171876	106.0871658325196	-723.1851806640626	-356.0977478027344	129.7888946533203	-808.4085693359377	-433.5597534179689	84.4724807739258	-779.1413574218752	-208.9075317382813	56.36182403564455	-788.2681274414065	-209.5727081298829	53.16399383544923	-746.6187133789064	-254.0046844482422	35.21867752075196	-699.8783569335939	
2	0.005	-275.3952941894532	1704.328002929688	-863.3657226562502	-408.4509887695314	1673.189819335938	-892.3448486328127	-436.0301513671876	1654.667358398438	-759.8516235351564	-462.0843200683595	1544.77685546875	-827.5545043945315	-471.9391479492189	1203.647216796875	-827.4576416015627	-331.8345336914063	1471.430786132813	-822.0823364257815	-356.0968322753907	1509.96728515625	-973.349304199219	-261.7713623046876	1433.920776367188	-1056.399047851563	-223.9723815917969	1459.889526367188	-1035.55859375	-196.4495239257813	1411.369384765625	-1060.451538085938	-90.9642791748047	1395.427490234375	-1057.482055664063	-92.10992431640626	1345.490844726563	-1006.6376953125	161.6109924316407	1455.58154296875	-944.6342773437502	167.3463134765625	1445.125732421875	-1017.539916992188	240.8878021240235	1475.462158203125	-937.082946777344	-357.8961791992188	1503.052001953125	-674.9899902343751	-257.2760925292969	1408.196899414063	-580.6934814453126	-220.2662963867188	1435.4169921875	-595.1940307617189	-191.9113922119141	1386.53466796875	-573.9743041992189	-98.59643554687503	1379.556518554688	-574.8743286132814	-96.62923431396487	1328.18994140625	-640.5244140625001	152.1404266357422	1439.88818359375	-685.2733154296876	160.0947570800782	1443.041870117188	-609.9009399414064	237.9700775146485	1472.750610351563	-687.5095214843751	-281.8100585937501	1063.76904296875	-950.0046386718752	-289.3008117675782	1048.740478515625	-695.2076416015626	-474.8594055175782	1102.504150390625	-821.9326171875002	-486.0864257812501	1074.316040039063	-851.2146606445315	-489.6192932128907	1069.688232421875	-795.5474853515627	-340.3726501464844	739.5169677734376	-1006.270263671875	-311.6733703613282	661.7731933593751	-987.1409301757815	-271.0782775878907	664.6691894531251	-959.7899169921877	-344.5078125000001	613.2777709960939	-980.8073730468752	-350.0723571777344	550.9406738281251	-980.8742675781252	-353.6949157714844	546.6977539062501	-842.9185791015627	-305.1216430664063	352.1706848144532	-926.8298339843752	-362.6398925781251	310.3618469238282	-977.4326782226565	-321.9651794433594	303.8439636230469	-957.2399902343752	-322.2412109375001	226.4053955078126	-922.1379394531252	-385.2762451171876	113.0457839965821	-941.9793090820315	-376.9140014648438	137.2361297607422	-859.6303710937502	-447.3939208984376	94.71439361572267	-902.293884277344	-230.1397399902344	54.30850982666017	-854.082214355469	-227.2590942382813	51.91063308715822	-892.8563232421877	-262.9685363769532	36.13433456420899	-948.7618408203127	-385.4061889648439	809.722839355469	-637.4489746093751	-351.3118896484376	752.8679809570314	-634.1284790039064	-317.4284057617188	753.7689819335939	-636.5806274414064	-379.3022766113282	676.9914550781251	-659.3601684570314	-361.6395263671876	527.9000854492189	-677.1969604492189	-348.9548339843751	516.9282836914064	-807.0509033203127	-308.3116760253907	368.1900634765626	-764.3553466796876	-332.7901916503907	285.3729248046876	-697.2960815429689	-306.5838317871094	284.9346618652344	-738.2117309570314	-319.5480651855469	239.2447662353516	-771.8892211914065	-365.3948364257813	106.0818786621094	-723.2097778320314	-356.0977478027344	129.7888946533203	-808.4085693359377	-433.5636291503907	84.47730255126955	-779.1394042968752	-208.8892059326172	56.35902786254884	-788.2901611328127	-209.5746459960938	53.15830993652345	-746.6145019531251	-253.9887084960938	35.19945526123048	-699.8810424804689	
3	0.01	-275.5231018066407	1704.40185546875	-863.2681884765627	-408.6022338867189	1673.183349609375	-892.193054199219	-436.0627441406251	1654.58251953125	-759.6454467773439	-462.1245422363282	1544.762329101563	-827.3818969726565	-472.0579528808595	1203.634765625	-827.325622558594	-331.8827514648438	1471.463623046875	-821.9937133789065	-356.1748046875001	1510.026489257813	-973.2452392578127	-261.7678222656251	1433.933349609375	-1056.260009765625	-223.9981994628907	1459.95556640625	-1035.377075195313	-196.5348358154297	1411.411743164063	-1060.297607421875	-91.00680541992189	1395.500610351563	-1057.3134765625	-92.17998504638673	1345.524047851563	-1006.518676757813	161.6094818115235	1455.586669921875	-944.4892578125002	167.3679351806641	1445.122314453125	-1017.371948242188	240.9136352539063	1475.430908203125	-936.9424438476565	-357.9701538085938	1503.07470703125	-674.8643798828126	-257.3420410156251	1408.2587890625	-580.5637817382814	-220.3682403564454	1435.521240234375	-595.0603637695314	-191.9629364013672	1386.620361328125	-573.8281250000001	-98.72747802734378	1379.642456054688	-574.7582397460939	-96.67098236083987	1328.28466796875	-640.3814697265626	152.1341552734375	1440.026733398438	-685.1694335937501	160.0347442626953	1443.178344726563	-609.7453613281251	237.9177246093751	1472.86865234375	-687.3938598632814	-281.9169616699219	1063.75341796875	-949.932067871094	-289.4050292968751	1048.74072265625	-695.1262207031251	-474.9627990722657	1102.493774414063	-821.826110839844	-484.0315246582032	1073.762084960938	-850.8654785156252	-489.3999633789064	1069.798095703125	-795.3309326171877	-340.4801025390626	739.5573730468751	-1006.264221191406	-311.7879333496094	661.7971801757814	-987.1442871093752	-271.1518249511719	664.6897583007814	-959.7481079101565	-344.5946350097657	613.2664184570314	-980.7615356445315	-350.1048278808594	551.0000000000001	-980.8286132812502	-353.6950378417969	546.6976928710939	-842.9185791015627	-305.1291198730469	352.1578369140626	-926.8523559570315	-362.7083740234376	310.3713989257813	-977.4010009765627	-322.0122985839844	303.8582458496094	-957.2024536132815	-322.2382202148438	226.4113464355469	-922.1413574218752	-385.3129272460939	113.0538635253907	-942.0073242187502	-376.9010009765626	137.2382507324219	-859.6348266601565	-447.4178771972657	94.72478485107423	-902.2719726562502	-230.1386413574219	54.31774902343751	-854.070007324219	-227.2859191894532	51.8966636657715	-892.8873291015627	-262.9510803222657	36.10834884643555	-948.7573852539065	-385.4149169921876	809.7046508789065	-637.3756103515626	-351.3079528808594	752.8331298828126	-634.1024780273439	-317.4069519042969	753.7586669921876	-636.4983520507814	-379.2174682617188	676.9745483398439	-659.3618164062501	-361.4222412109376	527.8964233398439	-677.1995849609376	-348.8079223632813	516.9953002929689	-807.0676269531252	-308.1766967773438	368.1164245605469	-764.3687133789064	-332.6767272949219	285.3499145507813	-697.2646484375001	-306.4844665527344	284.9004211425782	-738.1976928710939	-319.4939575195313	239.2539825439454	-771.9385375976565	-365.3830566406251	106.0841217041016	-723.1992797851564	-356.1240539550782	129.7911529541016	-808.442077636719	-433.5654907226564	84.46169281005861	-779.1467285156252	-208.9039306640626	56.36819458007814	-788.2705688476565	-209.5823974609376	53.15578842163087	-746.6667480468751	-254.021957397461	35.20540618896485	-699.8509521484376	
4	0.015	-275.6312866210938	1704.376953125	-863.130798339844	-408.643280029297	1673.197875976563	-892.0786132812502	-436.161590576172	1654.5849609375	-759.5460815429689	-462.2158813476564	1544.775390625	-827.2476806640627	-472.123260498047	1203.640502929688	-827.226501464844	-332.0130920410157	1471.490356445313	-821.8298950195315	-356.2485656738282	1510.02099609375	-973.095397949219	-261.8435363769532	1434.008178710938	-1056.076171875	-224.027816772461	1459.966674804688	-1035.220703125	-196.6169891357422	1411.418579101563	-1060.122192382813	-91.04603576660158	1395.565551757813	-1057.13916015625	-92.22766113281251	1345.614990234375	-1006.362182617188	161.6277465820313	1455.564575195313	-944.3450317382815	167.336669921875	1445.130249023438	-1017.265869140625	240.9022369384766	1475.394653320313	-936.7556762695315	-358.0447082519532	1503.07373046875	-674.7418212890626	-257.4187316894532	1408.302490234375	-580.3723754882814	-220.4419860839844	1435.5849609375	-594.9064331054689	-192.0259704589844	1386.694946289063	-573.7006225585939	-98.75362396240237	1379.726684570313	-574.6668090820314	-96.75046539306643	1328.363403320313	-640.2213134765626	151.976058959961	1440.095825195313	-684.8265380859376	159.9769592285157	1443.306274414063	-609.5899047851564	237.8951416015626	1472.93310546875	-687.2435302734376	-282.0437622070313	1063.732421875	-949.798034667969	-289.4693603515626	1048.7060546875	-695.0123901367189	-475.0518493652345	1102.45703125	-821.7210083007815	-484.077117919922	1073.7783203125	-850.7475585937502	-489.3901672363282	1069.806884765625	-795.2276611328127	-340.6671142578126	739.5453491210939	-1006.226318359375	-311.8451538085938	661.8054809570314	-987.1202392578127	-271.2066040039063	664.6748046875001	-959.803405761719	-344.6863708496094	613.2651367187501	-980.7363891601565	-350.1311950683594	550.9424438476564	-980.8331298828127	-353.6111450195313	546.6597290039064	-842.8953247070315	-305.1757202148438	352.1298828125001	-926.827819824219	-362.6573791503907	310.3651428222657	-977.3790283203127	-322.0533447265626	303.8389587402344	-957.2144165039065	-322.2188720703126	226.4132385253907	-922.1118164062502	-385.3086853027345	113.0312576293946	-942.0086669921877	-376.8609619140626	137.2339172363282	-859.6340332031252	-447.401336669922	94.7371292114258	-902.307312011719	-230.1446990966797	54.3082618713379	-854.063903808594	-227.2898406982422	51.87814712524415	-892.9146728515627	-262.9919738769532	36.11028289794923	-948.7716064453127	-385.4396972656251	809.6414184570315	-637.3143310546876	-351.2667846679688	752.8424682617189	-634.0261840820314	-317.3893737792969	753.7711791992189	-636.4364013671876	-379.1011352539063	676.9561157226564	-659.3410644531251	-361.2324829101563	527.9283447265626	-677.1892089843751	-348.4536437988282	517.2462768554689	-807.039978027344	-308.0473022460938	368.1358642578126	-764.3430786132814	-332.5392456054688	285.3383789062501	-697.2941284179689	-306.3510742187501	284.8648071289063	-738.2238159179689	-319.3796081542969	239.2424774169922	-771.8870239257815	-365.3789367675782	106.0968933105469	-723.2077026367189	-356.1091308593751	129.8025817871094	-808.4702148437502	-433.5654907226564	84.46169281005861	-779.1467285156252	-208.9061431884766	56.34011459350587	-788.304138183594	-209.5761718750001	53.16765213012697	-746.6807250976564	-254.0162658691407	35.21155166625977	-699.8784790039064	
